<svg width="241" height="63" xmlns="http://www.w3.org/2000/svg" xmlns:xlink="http://www.w3.org/1999/xlink" xml:space="preserve" overflow="hidden"><defs><clipPath id="clip0"><rect x="777" y="92" width="241" height="63"/></clipPath></defs><g clip-path="url(#clip0)" transform="translate(-777 -92)"><path d="M0 26.4258 0 1.25894 4.93495 1.25894 4.93495 26.4258 0 26.4258Z" fill="#FFFFFF" transform="matrix(1.00668 0 0 1 777 92.0968)"/><path d="M12.1762 10.5703 12.2458 10.5703C13.4358 8.95255 15.7096 8.01796 17.7758 8.01796 19.9779 8.01796 21.867 8.91673 22.919 10.5703 24.3908 9.13363 26.664 8.05444 28.7308 8.01796 32.6808 7.98148 34.7496 10.4642 34.8199 14.5966L34.8199 26.3894 30.1629 26.3894 30.1629 15.4608C30.1629 13.3761 29.4631 11.219 27.1561 11.219 24.9162 11.219 23.5173 12.5835 23.5173 15.7102L23.5173 26.4258 18.8609 26.4258 18.8609 15.4608C18.8609 12.945 17.7764 11.219 15.7812 11.219 13.5751 11.219 12.2127 12.7632 12.2127 15.8197L12.2127 26.4258 7.55631 26.4258 7.55631 8.44911 12.1762 8.44911 12.1762 10.5703Z" fill="#FFFFFF" transform="matrix(1.00668 0 0 1 777 92.0968)"/><path d="M46.5251 10.8954C49.1823 10.8954 50.5129 13.9877 50.5129 17.0786 50.5129 20.2426 49.4649 23.9809 46.352 23.9809 43.8308 23.9809 42.0459 21.4285 42.0459 17.6537 42.0452 13.5187 43.5854 10.8954 46.5251 10.8954ZM42.0452 8.44911 37.3928 8.44911 37.3928 35.4149 42.0452 35.4149 42.0452 24.1965C43.342 25.7811 45.1581 26.8563 47.2919 26.8563 52.2978 26.8563 55.4472 21.7894 55.4472 17.0428 55.4472 13.0876 53.2092 8.01863 47.7151 8.01863 45.6151 8.01863 43.3413 9.09781 42.1149 10.9298L42.0452 10.9298 42.0452 8.44911Z" fill="#FFFFFF" transform="matrix(1.00668 0 0 1 777 92.0968)"/><path d="M62.1167 15.2791C62.0815 12.8746 63.2695 10.6785 65.9306 10.6785 68.2389 10.6785 69.1848 12.5476 69.009 15.2791L62.1167 15.2791ZM73.3881 17.868C73.7337 12.5125 71.4592 8.01796 66.0009 8.01796 60.9963 8.01796 57.0776 11.5421 57.0776 17.0786 57.0776 23.0118 61.0302 26.8557 66.316 26.8557 68.3099 26.8557 70.7946 26.2806 73.1745 24.8439L71.8439 22.328C70.6911 23.1531 68.8684 23.7673 67.1557 23.7673 64.2512 23.7673 61.9429 21.2488 62.049 17.8673L73.3881 17.8673Z" fill="#FFFFFF" transform="matrix(1.00668 0 0 1 777 92.0968)"/><path d="M80.2526 11.613 80.3222 11.613 81.2654 10.2115C81.8253 9.45467 82.8408 8.01796 84.2748 8.01796 85.3255 8.01796 86.4438 8.59437 87.4255 9.63509L85.6764 12.945C84.907 12.5483 84.4161 12.3321 83.4716 12.3321 81.8624 12.3321 80.2858 13.6626 80.2858 17.5449L80.2858 26.4258 75.6307 26.4258 75.6307 8.44911 80.2519 8.44911 80.2519 11.613Z" fill="#FFFFFF" transform="matrix(1.00668 0 0 1 777 92.0968)"/><path d="M93.569 8.44911 93.569 26.4258 88.9166 26.4258 88.9166 8.44911 93.569 8.44911ZM88.4622 3.05847C88.4622 1.68942 89.5819 0.289862 91.1572 0.289862 92.7664 0.289862 94.0267 1.6556 94.0267 3.05847 94.0267 4.60263 92.9395 6.07582 91.2242 6.07582 89.5819 6.07582 88.4622 4.60263 88.4622 3.05847Z" fill="#FFFFFF" transform="matrix(1.00668 0 0 1 777 92.0968)"/><path d="M106.209 15.9994C106.559 21.2826 104.147 23.6572 102.292 23.6572 101.172 23.6572 100.189 22.5794 100.189 20.9961 100.189 18.9478 101.346 17.5827 103.62 16.8611L106.209 15.9994ZM106.141 23.8012C106.141 24.7716 106.245 25.8143 106.594 26.4258L111.529 26.4258C110.968 25.1669 110.794 23.4775 110.794 22.0394L110.794 14.7067C110.794 9.09715 106.841 8.01796 103.621 8.01796 101.207 8.01796 99.0737 8.62953 96.9007 10.4642L98.4051 12.7287C99.6322 11.6495 101.032 10.8954 103.029 10.8954 104.533 10.8954 105.966 11.9381 106.211 13.591L102.08 14.8486C98.0204 16.0339 95.6066 17.9761 95.6066 21.3934 95.6066 24.698 97.8804 26.855 100.61 26.855 102.22 26.855 103.798 25.742 105.092 24.698L106.141 23.8012Z" fill="#FFFFFF" transform="matrix(1.00668 0 0 1 777 92.0968)"/><path d="M113.699 26.4258 113.699 0 118.351 0 118.351 26.4258 113.699 26.4258Z" fill="#FFFFFF" transform="matrix(1.00668 0 0 1 777 92.0968)"/><path d="M149.065 5.82443C147.872 5.17639 145.879 4.42288 143.987 4.42288 138.95 4.42288 135.312 8.05444 135.312 13.7714 135.312 19.7398 139.337 23.2626 144.128 23.2626 146.02 23.2626 147.769 22.7226 149.065 22.0036L150.43 25.1324C148.925 26.0312 146.301 26.857 143.92 26.857 135.414 26.857 130.06 21.1049 130.06 13.7011 130.06 6.83331 135.382 0.829124 143.987 0.829124 146.544 0.829124 148.925 1.76438 150.602 2.77126L149.065 5.82443Z" fill="#FFFFFF" transform="matrix(1.00668 0 0 1 777 92.0968)"/><path d="M159.663 24.1965C156.338 24.1965 155.43 20.3865 155.43 17.2226 155.43 14.239 156.478 10.6791 159.663 10.6791 162.918 10.6791 163.931 14.239 163.931 17.2226 163.931 20.3858 163.058 24.1965 159.663 24.1965ZM159.663 26.8557C165.16 26.8557 168.864 22.7956 168.864 17.2226 168.864 11.3981 164.388 8.01796 159.663 8.01796 154.973 8.01796 150.495 11.3981 150.495 17.2226 150.495 22.7956 154.204 26.8557 159.663 26.8557Z" fill="#FFFFFF" transform="matrix(1.00668 0 0 1 777 92.0968)"/><path d="M170.871 26.4258 170.871 0 175.528 0 175.528 26.4258 170.871 26.4258Z" fill="#FFFFFF" transform="matrix(1.00668 0 0 1 777 92.0968)"/><path d="M178.461 26.4258 178.461 0 183.114 0 183.114 26.4258 178.461 26.4258Z" fill="#FFFFFF" transform="matrix(1.00668 0 0 1 777 92.0968)"/><path d="M190.09 15.2791C190.051 12.8746 191.242 10.6785 193.9 10.6785 196.213 10.6785 197.156 12.5476 196.982 15.2791L190.09 15.2791ZM201.356 17.868C201.707 12.5125 199.432 8.01796 193.973 8.01796 188.969 8.01796 185.045 11.5421 185.045 17.0786 185.045 23.0118 189.001 26.8557 194.288 26.8557 196.28 26.8557 198.765 26.2806 201.148 24.8439L199.817 22.328C198.664 23.1531 196.841 23.7673 195.127 23.7673 192.224 23.7673 189.912 21.2488 190.018 17.8673L201.356 17.8673Z" fill="#FFFFFF" transform="matrix(1.00668 0 0 1 777 92.0968)"/><path d="M228.097 15.2791C228.064 12.8746 229.252 10.6785 231.913 10.6785 234.22 10.6785 235.168 12.5476 234.992 15.2791L228.097 15.2791ZM239.366 17.868C239.714 12.5125 237.443 8.01796 231.983 8.01796 226.977 8.01796 223.058 11.5421 223.058 17.0786 223.058 23.0118 227.011 26.8557 232.298 26.8557 234.293 26.8557 236.778 26.2806 239.157 24.8439L237.827 22.328C236.672 23.1531 234.853 23.7673 233.138 23.7673 230.232 23.7673 227.926 21.2488 228.028 17.8673L239.366 17.8673Z" fill="#FFFFFF" transform="matrix(1.00668 0 0 1 777 92.0968)"/><path d="M212.235 10.8954C215.036 10.8954 216.469 13.8079 216.469 16.9347 216.469 20.5298 215.139 23.9809 212.023 23.9809 209.329 23.9809 208.001 20.6008 208.001 17.1131 208.001 13.6275 209.226 10.8954 212.235 10.8954ZM221.124 8.44911 216.469 8.44911 216.469 10.6426 216.4 10.6426C215.42 9.02485 213.319 8.01796 211.185 8.01796 206.425 8.01796 203.066 12.5483 203.066 17.2226 203.066 22.9747 206.112 26.8557 210.766 26.8557 213.427 26.8557 215.245 25.3467 216.4 23.8357L216.469 23.8357 216.469 26.2089C216.469 30.3791 214.09 32.3213 211.009 32.3213 208.63 32.3213 206.635 31.8536 204.922 30.7758L204.01 33.7228C206.076 34.8007 208.738 35.4149 211.36 35.4149 216.575 35.4149 221.124 32.7889 221.124 24.8087L221.124 8.44911Z" fill="#FFFFFF" transform="matrix(1.00668 0 0 1 777 92.0968)"/><path d="M0 37.2137 4.97077 37.2137 4.97077 58.9965 15.4317 58.9965 15.4317 62.3767 0 62.3767 0 37.2137Z" fill="#FFFFFF" transform="matrix(1.00668 0 0 1 777 92.0968)"/><path d="M42.7397 46.5225C44.3999 44.7966 46.7162 43.9688 49.0377 43.9688 53.3465 43.9688 55.41 46.2711 55.41 50.8001L55.41 62.3767 50.7331 62.3767 50.7331 51.34C50.7331 48.8248 49.5909 47.1712 47.0492 47.1712 44.6527 47.1712 42.7762 48.7147 42.7762 51.6624L42.7762 62.3767 38.0986 62.3767 38.0986 44.4026 42.7404 44.4026 42.7404 46.5225Z" fill="#FFFFFF" transform="matrix(1.00668 0 0 1 777 92.0968)"/><path d="M67.5219 46.8488C70.4696 46.8488 71.9786 49.7607 71.9786 52.8862 71.9786 56.4833 70.5817 59.9324 67.3003 59.9324 64.4661 59.9324 63.0665 56.5529 63.0665 53.0659 63.0665 49.579 64.3566 46.8488 67.5219 46.8488ZM71.9786 62.3767 76.6568 62.3767 76.6568 35.9548 71.9786 35.9548 71.9786 46.4887 71.905 46.4887C70.8006 44.904 68.6661 43.9688 66.2722 43.9688 61.3346 43.9688 57.8735 48.4998 57.8735 53.1734 57.8735 58.9242 61.0766 62.8065 65.9028 62.8065 68.7755 62.8065 70.6905 61.2975 71.905 59.7865L71.9786 59.7865 71.9786 62.3767Z" fill="#FFFFFF" transform="matrix(1.00668 0 0 1 777 92.0968)"/><path d="M88.8111 60.146C85.3149 60.146 84.3531 56.3367 84.3531 53.1734 84.3531 50.1905 85.4568 46.6313 88.8111 46.6313 92.2384 46.6313 93.3037 50.1905 93.3037 53.1734 93.3037 56.3367 92.3857 60.146 88.8111 60.146ZM88.8111 62.8065C94.5931 62.8065 98.496 58.7438 98.496 53.1734 98.496 47.3516 93.7839 43.9688 88.8111 43.9688 83.8755 43.9688 79.1608 47.3516 79.1608 53.1734 79.1608 58.7438 83.0656 62.8065 88.8111 62.8065Z" fill="#FFFFFF" transform="matrix(1.00668 0 0 1 777 92.0968)"/><path d="M105.68 46.5225C107.338 44.7966 109.657 43.9688 111.976 43.9688 116.286 43.9688 118.349 46.2711 118.349 50.8001L118.349 62.3767 113.672 62.3767 113.672 51.34C113.672 48.8248 112.53 47.1712 109.987 47.1712 107.595 47.1712 105.715 48.7147 105.715 51.6624L105.715 62.3767 101.038 62.3767 101.038 44.4026 105.679 44.4026 105.679 46.5225Z" fill="#FFFFFF" transform="matrix(1.00668 0 0 1 777 92.0968)"/><path d="M25.7917 60.146C22.2895 60.146 21.3344 56.3367 21.3344 53.1734 21.3344 50.1905 22.4381 46.6313 25.7917 46.6313 29.217 46.6313 30.2849 50.1905 30.2849 53.1734 30.2849 56.3367 29.3616 60.146 25.7917 60.146ZM25.7917 62.8065C31.573 62.8065 35.4772 58.7438 35.4772 53.1734 35.4772 47.3516 30.7625 43.9688 25.7917 43.9688 20.8555 43.9688 16.1414 47.3516 16.1414 53.1734 16.1414 58.7438 20.0442 62.8065 25.7917 62.8065Z" fill="#FFFFFF" transform="matrix(1.00668 0 0 1 777 92.0968)"/></g></svg>