<svg width="390" height="115" xmlns="http://www.w3.org/2000/svg" xmlns:xlink="http://www.w3.org/1999/xlink" xml:space="preserve" overflow="hidden"><g transform="translate(-237 -118)"><path d="M30.1465 4.05208C37.8385 0.947218 46.3531-0.0467548 54.5594 1.13077 65.9814 2.7239 76.6935 8.7241 84.0859 17.5677 88.0012 22.212 91.0143 27.6165 92.8862 33.3968 95.2066 40.5139 95.759 48.1852 94.5676 55.5724 93.5096 62.1839 91.0108 68.5633 87.2791 74.1237 84.4253 78.3905 80.8616 82.1776 76.7991 85.3137 76.4493 85.5855 76.1411 85.9042 75.8328 86.221 70.9461 91.1857 64.5164 94.5555 57.6885 95.8854 56.814 96.0638 55.9326 96.2041 55.0512 96.3322 55.3404 97.5651 55.7594 98.7635 56.2391 99.9358 55.9205 100.251 55.6018 100.57 55.2832 100.888 54.4226 100.407 53.2156 100.677 52.7671 101.588 52.187 102.592 52.8935 103.998 54.0382 104.147 54.9646 104.322 55.7716 103.707 56.3517 103.058 56.7222 104.577 56.6027 106.229 55.8408 107.611 54.3429 110.414 51.5827 112.338 48.6752 113.472 48.2579 113.607 47.8163 113.895 47.3747 113.685 44.3149 112.62 41.3901 110.712 39.7277 107.865 38.8619 106.433 38.6731 104.681 39.0801 103.07 39.6602 103.792 40.5936 104.374 41.5477 104.111 42.5555 103.868 43.153 102.644 42.7062 101.704 42.3287 100.774 41.1286 100.376 40.2542 100.848 39.9096 100.537 39.5823 100.206 39.255 99.8752 39.9996 98.5955 40.6957 97.2812 41.1944 95.8837 39.3883 95.5304 37.6255 94.9936 35.8592 94.4984 33.5388 95.34 30.9551 95.4854 28.5897 94.7408 24.9671 93.6655 22.0492 90.6177 21.0726 86.9743 13.7857 82.0235 7.93273 74.993 4.39841 66.9234 1.27796 59.8565-0.0467548 52.0156 0.545473 44.3149 1.15848 36.0635 4.02264 27.9975 8.73103 21.1955 13.9883 13.5502 21.5315 7.50155 30.1465 4.05208M42.0551 2.33601C33.6306 3.37154 25.5299 6.83659 18.9392 12.1788 11.5103 18.1513 6.00193 26.4788 3.47025 35.6722 1.22255 43.7573 1.25892 52.4589 3.57068 60.525 6.3396 70.3175 12.5008 79.0953 20.7384 85.066 20.5323 82.7802 21.0864 80.4581 22.2414 78.4823 21.6821 77.9524 21.1453 77.4 20.6362 76.8216 20.7591 76.7316 20.8821 76.6415 21.0068 76.5532 21.5332 77.0121 22.1046 77.4173 22.6813 77.8156 23.8605 76.1393 25.4883 74.7921 27.3602 73.9592 23.6493 71.0517 20.5635 67.346 18.3989 63.1553 15.533 57.7266 14.2516 51.4736 14.7468 45.3539 15.2317 38.8723 17.7218 32.5639 21.767 27.478 26.0355 22.0665 32.0236 18.03 38.6558 16.146 44.1348 14.5788 50.0172 14.449 55.5568 15.7823 61.1743 17.1261 66.4161 19.9799 70.6015 23.961 74.1548 27.3239 76.9584 31.4798 78.723 36.0462 80.5984 40.8689 81.2945 46.1383 80.7698 51.2831 80.162 57.427 77.755 63.3683 73.947 68.2256 69.8811 73.4414 64.2307 77.4121 57.924 79.4174 57.2331 79.6044 56.6235 80.0269 56.2079 80.6087 55.1378 82.0893 54.7204 83.937 54.5473 85.7275 61.4722 87.2895 68.8664 86.9934 75.5471 84.5379 82.7716 79.1542 88.3233 71.5522 91.2584 63.0341 93.7105 55.9464 94.3789 48.2544 93.2291 40.8464 92.2195 34.3094 89.7536 28.0061 86.0808 22.5081 80.9291 14.7641 73.3877 8.63059 64.7346 5.20883 57.5794 2.35333 49.6952 1.3784 42.0551 2.33601M42.3997 16.6603C36.2194 17.7028 30.3889 20.6674 25.8693 25.0034 21.0916 29.5473 17.7789 35.6133 16.5876 42.1018 15.5624 47.5462 15.9988 53.2589 17.8621 58.4781 19.8933 64.2567 23.6423 69.4084 28.4996 73.1401 28.678 73.2596 28.865 73.4778 29.1057 73.3687 30.9673 72.8977 32.9465 72.8994 34.7977 73.4206 37.7813 74.2293 40.3927 76.3315 41.7901 79.0935 48.199 80.3438 54.9923 79.5438 60.9284 76.8216 66.5529 74.2674 71.3894 70.0266 74.6743 64.797 78.5585 58.679 80.2105 51.1982 79.2961 44.0119 78.6624 38.8186 76.6969 33.7985 73.6544 29.5456 70.3071 24.8458 65.668 21.0743 60.3674 18.7937 54.7568 16.3521 48.4259 15.6126 42.3997 16.6603M23.8346 78.5688C24.4233 78.9221 25.0156 79.2702 25.6147 79.6078 27.0883 77.5939 29.5421 76.3212 32.0496 76.3904 33.26 76.387 34.4375 76.7298 35.5354 77.2216 36.9761 77.819 38.4567 78.3178 39.9684 78.6987 38.1969 76.032 35.0626 74.3245 31.8539 74.3471 28.6971 74.3159 25.6112 75.9696 23.8346 78.5688M26.8476 80.2763C28.6139 81.1594 30.4027 81.9993 32.2244 82.7647 32.7509 82.9984 33.3812 83.201 33.6409 83.769 34.0877 84.6019 33.5821 85.7552 32.6522 85.9648 31.9664 86.176 31.35 85.7189 30.7958 85.3864 29.123 84.2989 27.5386 83.0816 26.013 81.7967 25.2978 83.4504 25.3965 85.4245 26.1983 87.0297 26.9498 88.538 28.3248 89.6238 29.788 90.3978 34.0029 92.7009 38.6524 94.1607 43.3815 94.9382 47.1167 95.5651 50.935 95.5097 54.6841 95.0439 58.6236 94.5434 62.5025 93.449 66.0541 91.6567 68.7192 90.3285 71.1747 88.6038 73.3946 86.6245 67.3927 88.28 61.0046 88.4358 54.9161 87.1579 48.5367 85.8591 42.5451 83.0971 37.0281 79.6962 35.757 78.9931 34.5639 78.0407 33.0885 77.819 30.7595 77.374 28.2538 78.3714 26.8476 80.2763M23.2666 79.4606C22.2865 81.3204 21.8812 83.4868 22.212 85.5699 22.657 88.7527 24.8026 91.6204 27.7135 92.9711 29.5837 93.8732 31.7257 94.0828 33.7604 93.7382 31.6236 92.8204 29.4573 91.913 27.5334 90.5866 26.2468 89.6619 25.1749 88.3977 24.6207 86.9016 23.8813 84.9621 24.0077 82.7404 24.8736 80.8633 24.3402 80.3923 23.812 79.9161 23.2666 79.4606M40.1728 80.0442C41.3693 80.704 42.5919 81.3118 43.8179 81.9127 44.095 81.53 44.4084 81.1767 44.7582 80.8616 43.2118 80.7023 41.6932 80.3594 40.1728 80.0442M47.9652 80.9984C46.8258 80.9897 45.6881 81.53 45.037 82.4772 47.6553 83.6807 50.3774 84.6608 53.1654 85.3951 53.3472 83.5855 53.8321 81.769 54.8486 80.2399 52.587 80.723 50.277 80.981 47.9652 80.9984M41.165 99.2535C41.9668 99.3453 42.7824 99.6068 43.3556 100.201 44.5989 101.389 44.5625 103.617 43.2724 104.755 42.4828 105.475 41.3434 105.647 40.32 105.465 40.649 107.023 41.6204 108.359 42.7737 109.422 44.166 110.702 45.8388 111.68 47.6328 112.279 48.7549 112.061 49.7904 111.446 50.7774 110.871 52.7429 109.619 54.6148 107.83 55.0997 105.462 53.9949 105.683 52.7619 105.403 51.9827 104.558 50.7948 103.333 50.8848 101.112 52.2095 100.021 52.8381 99.47 53.6884 99.2656 54.5074 99.2639 54.1854 98.3548 53.865 97.4422 53.6537 96.5002 49.9688 96.8725 46.2353 96.8101 42.5832 96.1556 42.2005 97.2257 41.7226 98.2613 41.165 99.2535Z" fill="#FFFFFF" transform="matrix(1.00052 0 0 1 237 118.182)"/><path d="M38.7372 5.12918C39.203 4.97852 39.6758 4.84865 40.1503 4.71704 39.7918 6.55433 39.3797 8.38296 39.0506 10.2237 39.2879 11.2922 39.6515 12.3277 39.9355 13.3857 39.5234 13.5069 39.1095 13.6299 38.7009 13.7615 38.3822 12.8281 38.1554 11.8653 37.8697 10.9198 37.7952 10.5891 37.5268 10.364 37.3086 10.1267 36.306 9.1068 35.3362 8.05568 34.3301 7.0392 34.1864 6.87988 34.0115 6.73096 33.944 6.5197 34.3613 6.3829 34.7856 6.27207 35.2046 6.14046 36.1657 7.10673 37.0939 8.1059 38.0446 9.08255 38.2697 7.76476 38.5312 6.45216 38.7372 5.12918Z" fill="#FFFFFF" transform="matrix(1.00052 0 0 1 237 118.182)"/><path d="M58.4487 5.83742C60.0366 5.50841 61.8064 6.33787 62.4713 7.83576 63.3112 9.74058 62.6739 12.1441 61.1085 13.4827 60.0903 14.3676 58.5647 14.539 57.3387 14.0091 56.0296 13.481 55.1672 12.1285 55.1274 10.7328 54.9992 8.64098 56.2581 6.25822 58.4487 5.83742M58.6063 7.02015C57.3976 7.40111 56.7222 8.65483 56.5144 9.83409 56.3136 10.8921 56.575 12.1614 57.5344 12.7745 58.447 13.4082 59.7786 13.1745 60.4695 12.319 61.3354 11.2696 61.7821 9.76483 61.3423 8.44357 60.989 7.3457 59.7093 6.66862 58.6063 7.02015Z" fill="#FFFFFF" transform="matrix(1.00052 0 0 1 237 118.182)"/><path d="M47.3522 7.37341C48.1384 7.04958 49.0631 7.84269 48.8484 8.67042 48.7185 9.49296 47.5947 9.87739 46.992 9.29728 46.3409 8.77951 46.5557 7.62103 47.3522 7.37341Z" fill="#FFFFFF" transform="matrix(1.00052 0 0 1 237 118.182)"/><path d="M25.4069 10.4038C27.194 9.47737 28.9793 8.5492 30.7647 7.6193 30.9361 7.95697 31.1075 8.29465 31.2772 8.63232 30.5811 8.98731 29.8919 9.35096 29.201 9.71461 30.304 11.8134 31.3794 13.9277 32.4981 16.0178 32.1119 16.2378 31.7205 16.4473 31.3274 16.6516 30.2227 14.5425 29.123 12.4299 28.0234 10.3172 27.3273 10.6843 26.6312 11.0514 25.9299 11.4082 25.755 11.074 25.5801 10.738 25.4069 10.4038Z" fill="#FFFFFF" transform="matrix(1.00052 0 0 1 237 118.182)"/><path d="M63.9987 16.4127C65.3892 14.0299 66.797 11.6593 68.1979 9.28343 69.5157 10.0557 70.8318 10.835 72.1496 11.609 71.9574 11.9346 71.7634 12.2601 71.5712 12.5857 70.6344 12.0246 69.6906 11.4774 68.7486 10.9233 68.3624 11.5744 67.9867 12.2342 67.5849 12.8784 68.4629 13.4256 69.3737 13.9191 70.2482 14.4749 70.056 14.7832 69.8707 15.0949 69.6872 15.4066 68.7988 14.8905 67.9139 14.3693 67.0308 13.8446 66.3953 14.92 65.7615 15.9971 65.1277 17.0724 64.7537 16.8473 64.3779 16.6257 63.9987 16.4127Z" fill="#FFFFFF" transform="matrix(1.00052 0 0 1 237 118.182)"/><path d="M20.8717 13.6056C21.2301 13.3494 21.5817 13.0844 21.9384 12.8264 23.5817 15.0343 25.277 17.2006 26.9377 19.3963 26.5879 19.663 26.2398 19.9297 25.8935 20.1998 24.2155 18.0041 22.5202 15.8222 20.8717 13.6056Z" fill="#FFFFFF" transform="matrix(1.00052 0 0 1 237 118.182)"/><path d="M233.696 14.8386C236.221 14.3208 239.033 14.9044 240.957 16.6793 240.592 17.1746 240.183 17.6352 239.807 18.1235 238.702 17.3218 237.409 16.7382 236.036 16.6464 234.848 16.5564 233.551 16.7451 232.616 17.5365 231.712 18.2846 231.4 19.6214 231.81 20.7089 232.056 21.3202 232.557 21.7895 233.097 22.1462 234.905 23.3099 237.047 23.8501 238.799 25.1091 239.953 25.9299 240.874 27.1593 241.085 28.5845 241.327 30.2175 240.914 31.9872 239.809 33.2409 239.009 34.1691 237.876 34.7596 236.692 35.0263 233.959 35.6445 230.977 34.8999 228.818 33.1249 229.18 32.595 229.545 32.0651 229.892 31.5231 231.277 32.3786 232.806 33.1128 234.456 33.2201 235.544 33.2582 236.714 33.0868 237.598 32.3993 238.585 31.6322 238.938 30.2677 238.739 29.0711 238.553 28.0737 237.793 27.3048 236.978 26.7628 235.023 25.4744 232.628 24.9307 230.854 23.3566 229.055 21.7912 228.924 18.8422 230.285 16.9564 231.086 15.8343 232.363 15.1243 233.696 14.8386Z" fill="#FFFFFF" transform="matrix(1.00052 0 0 1 237 118.182)"/><path d="M308.594 14.7364C310.675 14.4801 312.876 14.9165 314.599 16.1425 317.003 17.8049 318.3 20.6899 318.544 23.5419 318.838 26.7645 318.097 30.2729 315.798 32.6626 313.235 35.3865 308.809 35.9925 305.546 34.2245 302.98 32.8721 301.366 30.1551 300.893 27.3481 300.367 24.1878 300.846 20.7176 302.782 18.0941 304.143 16.2274 306.303 14.9962 308.594 14.7364M307.96 16.8923C306.779 17.2006 305.718 17.914 304.966 18.8716 303.906 20.1946 303.397 21.8761 303.227 23.5419 303.046 25.3913 303.21 27.31 303.937 29.0347 304.453 30.2763 305.286 31.4071 306.405 32.1673 308.573 33.686 311.806 33.4903 313.726 31.6461 314.966 30.4772 315.631 28.8235 315.933 27.1732 316.26 25.232 316.236 23.1938 315.607 21.315 315.145 19.9349 314.31 18.65 313.115 17.798 311.65 16.733 309.697 16.4421 307.96 16.8923Z" fill="#FFFFFF" transform="matrix(1.00052 0 0 1 237 118.182)"/><path d="M119.995 15.0308C120.78 15.0291 121.566 15.0395 122.352 15.0187 122.399 19.5348 122.343 24.051 122.38 28.5672 122.385 29.7326 122.647 30.9811 123.5 31.8331 124.69 33.0297 126.517 33.3431 128.134 33.1093 129.468 32.924 130.749 32.1309 131.338 30.8928 131.776 29.9542 131.807 28.8927 131.84 27.8745 131.875 23.5904 131.828 19.3063 131.866 15.0221 132.642 15.036 133.416 15.0308 134.193 15.0308 134.193 17.9867 134.191 20.941 134.193 23.8969 134.162 25.8606 134.278 27.8364 134.022 29.7897 133.85 31.1387 133.315 32.4842 132.295 33.4158 130.832 34.8081 128.73 35.2912 126.759 35.2168 124.643 35.1596 122.428 34.325 121.149 32.569 120.196 31.2772 120.021 29.6148 120.006 28.0581 119.983 23.7151 120.001 19.3738 119.995 15.0308Z" fill="#FFFFFF" transform="matrix(1.00052 0 0 1 237 118.182)"/><path d="M141.818 15.0308C142.628 15.0308 143.44 15.0291 144.252 15.0343 147.446 20.4544 150.597 25.9022 153.825 31.3015 153.839 25.8779 153.789 20.4544 153.78 15.0308 154.509 15.0325 155.242 15.0221 155.974 15.0447 155.945 21.6492 155.986 28.2555 155.952 34.86 155.124 34.8427 154.296 34.8635 153.47 34.841 150.311 29.4278 147.136 24.025 143.941 18.6344 143.949 24.0424 143.996 29.4521 143.987 34.86 143.264 34.8479 142.54 34.8514 141.818 34.8531 141.816 28.2451 141.816 21.6388 141.818 15.0308Z" fill="#FFFFFF" transform="matrix(1.00052 0 0 1 237 118.182)"/><path d="M164.248 34.8652C164.222 28.252 164.222 21.6371 164.25 15.0239 165.038 15.0412 165.829 15.0325 166.619 15.0343 166.62 21.6405 166.62 28.2486 166.619 34.8548 165.829 34.8548 165.038 34.8462 164.248 34.8652Z" fill="#FFFFFF" transform="matrix(1.00052 0 0 1 237 118.182)"/><path d="M171.886 15.0308C172.714 15.0308 173.543 15.0308 174.371 15.0308 176.304 20.8648 178.224 26.7022 180.162 32.5344 182.138 26.6953 184.126 20.8596 186.12 15.0273 186.886 15.0325 187.655 15.0291 188.422 15.0308 186.101 21.6371 183.774 28.2416 181.459 34.8496 180.546 34.8548 179.632 34.8531 178.719 34.8514 176.446 28.2434 174.162 21.6388 171.886 15.0308Z" fill="#FFFFFF" transform="matrix(1.00052 0 0 1 237 118.182)"/><path d="M193.816 15.0377C197.406 15.0221 200.995 15.0516 204.587 15.0239 204.611 15.6871 204.606 16.3521 204.594 17.0153 201.783 17.0032 198.971 17.0153 196.161 17.0084 196.155 19.1902 196.159 21.3704 196.159 23.5506 198.805 23.5592 201.451 23.5315 204.099 23.5644 204.08 24.193 204.08 24.8216 204.1 25.4502 201.454 25.516 198.807 25.4623 196.159 25.4779 196.152 27.9213 196.169 30.3646 196.152 32.8063 199.047 32.8357 201.943 32.808 204.84 32.8201 204.836 33.499 204.836 34.176 204.838 34.8531 201.163 34.8514 197.489 34.8618 193.814 34.8479 193.825 28.2451 193.821 21.6423 193.816 15.0377Z" fill="#FFFFFF" transform="matrix(1.00052 0 0 1 237 118.182)"/><path d="M211.139 34.8393C211.179 28.233 211.119 21.625 211.171 15.0169 213.337 15.0585 215.505 14.991 217.671 15.0776 219.031 15.1486 220.471 15.4637 221.486 16.4386 223.126 17.9227 223.562 20.4318 222.852 22.4769 222.255 24.1584 220.579 25.2493 218.863 25.5039 220.049 25.6684 220.864 26.6554 221.336 27.684 222.458 30.0529 223.488 32.4617 224.562 34.8531 223.741 34.8548 222.922 34.8427 222.103 34.8635 221.154 32.8461 220.319 30.775 219.351 28.7646 218.878 27.8174 218.279 26.768 217.188 26.458 215.985 26.1394 214.722 26.2572 213.493 26.2294 213.491 29.104 213.491 31.9786 213.491 34.8514 212.707 34.8496 211.922 34.8618 211.139 34.8393M213.493 16.9356C213.491 19.4015 213.491 21.8691 213.493 24.335 214.998 24.3125 216.532 24.4372 218.007 24.0614 218.946 23.8259 219.829 23.2562 220.316 22.4007 221.024 21.1903 220.981 19.5781 220.222 18.4006 219.581 17.4551 218.419 17.0257 217.316 16.9685 216.044 16.8975 214.766 16.9529 213.493 16.9356Z" fill="#FFFFFF" transform="matrix(1.00052 0 0 1 237 118.182)"/><path d="M247.729 15.0343C248.524 15.0343 249.319 15.0343 250.116 15.0343 250.117 21.6405 250.117 28.2468 250.116 34.8548 249.319 34.8548 248.524 34.8548 247.729 34.8531 247.729 28.2468 247.729 21.6405 247.729 15.0343Z" fill="#FFFFFF" transform="matrix(1.00052 0 0 1 237 118.182)"/><path d="M255.449 15.036C260.17 15.0325 264.888 15.0343 269.609 15.0343 269.607 15.6923 269.607 16.3521 269.609 17.0101 267.65 17.0084 265.692 17.0136 263.735 17.0084 263.728 22.9566 263.733 28.9066 263.732 34.8548 262.944 34.8566 262.156 34.8427 261.371 34.8704 261.311 28.9152 261.38 22.9566 261.337 17.0014 259.375 17.0222 257.411 17.0049 255.449 17.0101 255.449 16.3521 255.449 15.694 255.449 15.036Z" fill="#FFFFFF" transform="matrix(1.00052 0 0 1 237 118.182)"/><path d="M272.381 15.0325C273.294 15.0343 274.207 15.0187 275.121 15.0447 276.71 18.1391 278.359 21.2024 279.961 24.2917 281.62 21.244 283.135 18.1166 284.732 15.0325 285.592 15.0291 286.455 15.0308 287.319 15.0325 285.263 18.9495 283.206 22.8648 281.15 26.7801 281.008 27.0122 281.017 27.2858 281.019 27.5472 281.028 29.9819 281.021 32.4167 281.024 34.8514 280.234 34.8514 279.445 34.8618 278.659 34.841 278.662 32.2348 278.7 29.6235 278.64 27.0191 276.601 23.0016 274.445 19.0396 272.381 15.0325Z" fill="#FFFFFF" transform="matrix(1.00052 0 0 1 237 118.182)"/><path d="M325.133 15.0343C328.645 15.0343 332.155 15.0343 335.667 15.0343 335.665 15.6923 335.665 16.3521 335.667 17.0101 332.944 17.0118 330.222 17.0101 327.5 17.0101 327.5 19.1902 327.504 21.3687 327.498 23.5488 330.058 23.5627 332.619 23.5315 335.18 23.5627 335.163 24.1965 335.163 24.8303 335.178 25.4623 332.619 25.5004 330.058 25.4675 327.5 25.4796 327.502 28.6053 327.5 31.7292 327.5 34.8548 326.71 34.8548 325.921 34.8548 325.133 34.8548 325.133 28.2468 325.133 21.6405 325.133 15.0343Z" fill="#FFFFFF" transform="matrix(1.00052 0 0 1 237 118.182)"/><path d="M14.681 20.0976C14.9009 18.5998 16.2672 17.4274 17.7391 17.2317 17.8257 17.6006 17.8967 17.9729 17.9642 18.3452 17.043 18.5028 16.0888 19.1141 15.9018 20.0855 15.7754 20.6951 16.4005 21.2596 16.9962 21.102 18.1062 20.8682 19.0846 20.1132 20.257 20.1531 21.6613 20.1634 22.799 21.6596 22.4336 23.0172 22.0475 24.4787 20.6483 25.4987 19.1937 25.7273 19.1054 25.3584 19.0136 24.9896 18.9184 24.6225 19.8033 24.3766 20.8197 23.9748 21.1453 23.0293 21.4397 22.3419 20.8544 21.4622 20.0907 21.5453 18.9357 21.6423 17.966 22.4596 16.7936 22.4891 15.5659 22.541 14.4801 21.3115 14.681 20.0976Z" fill="#FFFFFF" transform="matrix(1.00052 0 0 1 237 118.182)"/><path d="M74.3142 18.0196C75.0241 17.6318 75.9904 18.2326 75.9523 19.0448 75.9887 19.9037 74.9012 20.4942 74.2016 19.9937 73.4674 19.566 73.5366 18.3608 74.3142 18.0196Z" fill="#FFFFFF" transform="matrix(1.00052 0 0 1 237 118.182)"/><path d="M80.5984 22.9583C81.414 22.7384 82.3092 22.7332 83.0989 23.0605 84.8063 23.7359 85.8591 25.819 85.2357 27.5784 84.64 29.2737 82.9759 30.453 81.2425 30.7491 79.9126 30.988 78.4823 30.4079 77.7099 29.2962 77.0259 28.3836 76.7818 27.1386 77.1558 26.0511 77.6684 24.5116 79.071 23.3965 80.5984 22.9583M81.1213 24.1757C79.8451 24.5619 78.5723 25.4866 78.2623 26.8494 77.9454 28.1828 79.1161 29.6425 80.5066 29.5265 81.8625 29.414 83.2062 28.6434 83.8972 27.4555 84.4963 26.439 84.124 25.0294 83.1439 24.3939 82.5517 24.0008 81.7863 23.9904 81.1213 24.1757Z" fill="#FFFFFF" transform="matrix(1.00052 0 0 1 237 118.182)"/><path d="M37.3138 23.4605C37.409 23.4501 37.6012 23.4294 37.6982 23.419 38.6247 24.6727 39.5424 25.9385 40.3927 27.2459 39.9598 27.3498 39.5217 27.4329 39.087 27.5299 39.5719 28.3957 40.1797 29.1854 40.7269 30.0131 41.5494 29.4157 42.3252 28.7507 43.0612 28.0512 42.727 27.8763 42.3806 27.7256 42.0568 27.5334 42.0932 27.2961 42.3287 27.1922 42.4967 27.0589 43.3105 26.4979 44.1209 25.9299 44.9262 25.355 45.1496 25.1922 45.3937 25.0398 45.6829 25.0381 45.0578 27.1334 44.3322 29.1958 43.6673 31.279 41.6031 30.5759 39.3901 30.5205 37.2307 30.5014 35.2791 30.5621 33.2704 30.6157 31.414 31.2859 30.7162 29.2166 30.0356 27.142 29.3776 25.0588 29.9161 25.0259 30.285 25.4814 30.7162 25.7273 31.5352 26.3385 32.4894 26.7888 33.208 27.5265 32.86 27.6892 32.4998 27.833 32.1846 28.0563 32.8219 28.7802 33.5942 29.3724 34.3059 30.0218 34.886 29.2062 35.5146 28.4096 35.9614 27.5091 35.5319 27.4295 35.1025 27.3585 34.6799 27.2477 35.4973 25.9455 36.4462 24.7298 37.3138 23.4605Z" fill="#FFFFFF" transform="matrix(1.00052 0 0 1 237 118.182)"/><path d="M55.9724 26.0199C56.5872 25.1489 57.2088 24.2831 57.8184 23.4086 58.3985 23.3947 58.5716 24.0406 58.8937 24.406 59.5171 25.3792 60.3224 26.2416 60.8263 27.2858 60.4055 27.3602 59.9864 27.4295 59.5691 27.5143 60.0158 28.4009 60.6566 29.1681 61.1847 30.0062 62.0263 29.4347 62.7813 28.7404 63.5311 28.0563 63.1882 27.8693 62.835 27.7014 62.4817 27.5368 62.8315 27.0572 63.3857 26.8009 63.848 26.4494 64.5147 26.0026 65.1381 25.49 65.8308 25.0831 65.9156 25.0814 66.0818 25.0744 66.165 25.071 65.5 27.1438 64.8074 29.2079 64.1372 31.2772 62.1146 30.588 59.9466 30.5274 57.8305 30.4997 55.8287 30.5465 53.7801 30.6175 51.8701 31.279 51.1948 29.2079 50.5073 27.142 49.8423 25.0692 50.4519 25.0346 50.8727 25.5801 51.3697 25.8537 52.1229 26.4269 53.0373 26.8147 53.6589 27.5403 53.3039 27.6927 52.9524 27.8555 52.6113 28.039 53.3005 28.6849 53.9758 29.3534 54.7083 29.949L54.8365 29.9387C55.42 29.194 55.9014 28.3784 56.4504 27.6096 56.0694 27.381 55.6157 27.3689 55.1897 27.2927 55.349 26.8113 55.6884 26.4286 55.9724 26.0199Z" fill="#FFFFFF" transform="matrix(1.00052 0 0 1 237 118.182)"/><path d="M9.8618 26.4892C10.2445 25.8883 10.8419 25.3532 11.5865 25.3238 12.9493 25.1662 14.4403 26.4269 14.0611 27.8641 14.707 27.5438 15.436 27.691 16.1235 27.7377 16.9131 27.8104 17.7045 27.8659 18.4941 27.9473 18.243 28.3386 18.0162 28.7438 17.8032 29.1577 16.7122 29.1023 15.6248 28.8945 14.5304 28.9378 13.8342 28.9811 13.5693 29.7153 13.2732 30.2313 14.2879 30.7699 15.2906 31.3292 16.3001 31.8798 16.0923 32.2625 15.881 32.6435 15.6611 33.0193 13.2455 31.6911 10.8211 30.3768 8.38816 29.078 8.86783 28.2087 9.32672 27.3256 9.8618 26.4892M11.074 26.8165C10.577 27.2598 10.3207 27.897 9.97089 28.4494 10.7467 28.8754 11.5259 29.2945 12.3069 29.7118 12.6117 29.13 13.0082 28.5516 13.0359 27.8728 13.055 26.9498 11.829 26.2312 11.074 26.8165Z" fill="#FFFFFF" transform="matrix(1.00052 0 0 1 237 118.182)"/><path d="M88.2419 31.2253C88.4151 31.6894 88.5709 32.1586 88.7302 32.6262 88.0272 33.5163 87.1942 34.3007 86.5379 35.2271 87.641 35.4592 88.7423 35.7034 89.8385 35.977 89.9666 36.4203 90.1121 36.8601 90.2558 37.2999 88.7406 36.9242 87.2219 36.5605 85.7033 36.2021 84.6348 37.4922 83.5404 38.7615 82.4911 40.0689 82.3006 39.6048 82.143 39.1286 82.0131 38.6472 82.8409 37.7242 83.6391 36.777 84.4357 35.828 83.2461 35.525 82.0322 35.3137 80.8494 34.9882 80.5845 34.5968 80.5256 34.0825 80.3525 33.6427 82.0027 34.0115 83.6357 34.4652 85.2929 34.8012 86.2418 33.5821 87.2826 32.4357 88.2419 31.2253Z" fill="#FFFFFF" transform="matrix(1.00052 0 0 1 237 118.182)"/><path d="M34.0843 32.0894C36.1241 31.8123 38.1952 31.8054 40.242 31.9976 41.146 32.1102 42.0776 32.2054 42.9123 32.5933 43.172 32.6712 43.4058 33.0401 43.0871 33.2115 42.5399 33.5751 41.8646 33.6669 41.2308 33.7899 39.158 34.1016 37.0437 34.1172 34.957 33.9319 34.0427 33.8332 33.1093 33.7293 32.2556 33.3725 32.0236 33.2946 31.8902 33.0816 31.7379 32.9085 32.3716 32.3214 33.2721 32.2348 34.0843 32.0894Z" fill="#FFFFFF" transform="matrix(1.00052 0 0 1 237 118.182)"/><path d="M52.5593 32.6297C53.4477 32.1864 54.4624 32.1015 55.4339 31.982 57.6746 31.7967 59.9535 31.8019 62.1718 32.2141 62.7519 32.3647 63.4861 32.4374 63.7943 33.0331 63.0947 33.6063 62.1666 33.7119 61.3059 33.8487 59.0028 34.131 56.6582 34.1293 54.3603 33.7985 53.6901 33.6617 52.9472 33.5907 52.3896 33.1561 52.1558 32.995 52.3723 32.7093 52.5593 32.6297Z" fill="#FFFFFF" transform="matrix(1.00052 0 0 1 237 118.182)"/><path d="M5.19671 38.4082C5.6504 36.8809 6.11276 35.3553 6.55433 33.8262 6.92144 33.918 7.28855 34.015 7.65393 34.1154 7.31972 35.2237 6.98205 36.3302 6.64611 37.4367 7.38726 37.6255 8.12148 37.835 8.85917 38.0394 9.15701 37.0333 9.38559 36.0064 9.74578 35.0228 10.0869 35.1302 10.4281 35.2341 10.7709 35.338 10.4887 36.3371 10.2047 37.3346 9.92414 38.3337 10.7588 38.5502 11.59 38.7892 12.4229 39.016 12.7225 37.9285 13.0429 36.848 13.3372 35.7588 13.7095 35.8523 14.0801 35.9527 14.4524 36.0514 14.0472 37.5735 13.6178 39.087 13.2022 40.6057 10.5371 39.8593 7.86346 39.1476 5.19671 38.4082Z" fill="#FFFFFF" transform="matrix(1.00052 0 0 1 237 118.182)"/><path d="M32.2141 37.3571C35.3328 37.3571 38.4515 37.3588 41.5702 37.3571 42.8222 37.3796 44.1677 37.3554 45.2777 38.022 46.5505 38.7753 47.0925 40.313 47.0994 41.7278 47.1185 47.4457 47.0977 53.1637 47.1098 58.8799 47.1133 59.2401 47.0959 59.6003 47.0457 59.957 46.6925 59.4305 46.8085 58.7119 46.3738 58.2184 45.631 57.2192 44.2647 57.1274 43.1235 57.0928 39.4888 57.0824 35.854 57.0841 32.221 57.0911 32.2071 50.5142 32.2193 43.9357 32.2141 37.3571M33.4158 40.4897C33.5024 40.5849 33.6738 40.7771 33.7587 40.8724 33.8141 41.5079 33.7985 42.1503 33.7743 42.7893 33.8124 43.056 33.5024 43.1443 33.3639 43.3105 34.1587 43.2846 35.0419 43.4525 35.7536 43.0058 36.5778 42.5174 36.6159 41.0767 35.6964 40.668 34.9761 40.3754 34.1726 40.5174 33.4158 40.4897M37.6186 40.5572C36.564 40.9901 36.4601 42.6993 37.4991 43.2118 38.4342 43.7469 39.752 43.0092 39.681 41.9062 39.7866 40.8377 38.5485 40.0844 37.6186 40.5572M39.9425 40.4931C40.0827 40.6594 40.4135 40.7442 40.3632 41.0195 40.3667 41.5997 40.3286 42.1798 40.2628 42.7564 40.2732 43.0196 40.0186 43.146 39.8663 43.3175 40.268 43.3209 40.6749 43.333 41.0715 43.2482 40.9624 43.1859 40.7425 43.0612 40.6317 42.9988 40.5676 42.4499 40.6109 41.8958 40.6299 41.3451 40.9763 41.9564 41.1494 42.6456 41.4559 43.2759 41.5079 43.269 41.6118 43.2569 41.6637 43.2517 41.9858 42.5659 42.1728 41.8248 42.5278 41.1546 42.5434 41.7711 42.5399 42.3893 42.5313 43.0075 42.4274 43.082 42.2213 43.2274 42.1174 43.3001 42.6213 43.3175 43.1235 43.3157 43.6274 43.314 43.5374 43.217 43.3556 43.0231 43.2638 42.9261 43.2014 42.2421 43.1824 41.5512 43.2032 40.8637 43.2984 40.7685 43.4889 40.5797 43.5859 40.4845 43.2118 40.4862 42.8395 40.4879 42.4672 40.4862 42.2473 41.0576 42.0256 41.6291 41.8109 42.2023 41.5425 41.6343 41.2897 41.0594 41.0403 40.4845 40.6732 40.4862 40.3078 40.4879 39.9425 40.4931M43.8023 40.4931C44.3513 40.7667 44.1746 41.4005 44.2058 41.894 44.1746 42.3927 44.3513 43.0196 43.811 43.3123 44.3166 43.314 44.8223 43.314 45.3279 43.3175 45.2379 43.2205 45.0578 43.0283 44.966 42.933 44.914 42.2456 44.921 41.5512 44.9625 40.8637 45.0543 40.7806 45.2396 40.6126 45.3331 40.5278 44.824 40.4723 44.3114 40.4758 43.8023 40.4931M35.17 45.7054C35.3241 45.8786 35.6393 45.9652 35.6531 46.2301 35.7137 46.8881 35.6722 47.5496 35.6376 48.2077 35.5406 48.2856 35.3432 48.4397 35.2462 48.5176 35.6549 48.5436 36.0653 48.5419 36.4722 48.4847 35.5995 48.2492 36.0462 47.1894 35.9389 46.5435 36.512 47.1756 37.0038 47.8769 37.5389 48.5419 37.629 48.5592 37.8073 48.5938 37.8956 48.6094 38.0013 47.7297 37.8281 46.8275 38.022 45.9617L38.4082 45.8422C38.022 45.6188 37.5666 45.7158 37.1441 45.7123 37.9199 45.9825 37.6099 46.8691 37.674 47.4908 37.1597 46.9158 36.6956 46.2994 36.209 45.7037 35.8627 45.7054 35.5163 45.7037 35.17 45.7054M38.4983 45.8994C39.229 46.6076 39.1684 47.8579 39.823 48.5904L40.0152 48.5453C40.5295 47.6206 40.5866 46.3963 41.4542 45.7054 41.0611 45.7054 40.6663 45.7054 40.2732 45.7037 40.3667 45.7868 40.552 45.953 40.6455 46.0362 40.507 46.5505 40.3182 47.0492 40.1347 47.5496 39.8645 47.0492 39.6844 46.5072 39.4922 45.9756 39.5944 45.9115 39.8022 45.7833 39.9044 45.7175 39.3987 45.7054 38.8931 45.7054 38.3892 45.6864 38.4151 45.7383 38.4705 45.8457 38.4983 45.8994M41.9633 45.8041C41.546 46.0431 41.4213 46.7011 41.7867 47.0388 42.0793 47.2864 42.4499 47.418 42.7425 47.6657 42.9434 47.9306 42.7893 48.3756 42.4326 48.3808 41.972 48.341 41.8196 47.8284 41.475 47.5947 41.5061 47.8821 41.5581 48.1661 41.6118 48.4501 42.0395 48.5678 42.5174 48.6856 42.9382 48.4743 43.404 48.2821 43.6032 47.6587 43.3417 47.2327 43.0646 46.8275 42.5018 46.7687 42.2023 46.3946 42.0274 46.0743 42.4482 45.7279 42.7425 45.9098 42.9625 46.0898 43.1252 46.3288 43.3157 46.5383 43.2932 46.2699 43.269 46.0015 43.243 45.7331 42.8205 45.6656 42.3495 45.5548 41.9633 45.8041M34.8167 50.9541C34.9224 51.0216 35.1336 51.1567 35.2393 51.2242 35.267 51.9602 35.2635 52.6979 35.2445 53.4338 35.1007 53.5273 34.9587 53.6208 34.8167 53.7143 35.338 53.7594 35.8592 53.7542 36.3822 53.7524 36.2627 53.6122 36.0982 53.5048 36.0185 53.3368 35.9648 52.639 36.0029 51.9394 36.0099 51.2415 36.1467 51.1359 36.2835 51.0303 36.4203 50.9212 35.8852 50.916 35.3501 50.9142 34.8167 50.9541M36.5449 50.9402C36.68 51.0285 36.8133 51.1169 36.9501 51.2052 36.9796 51.9429 37.0229 52.6875 36.9432 53.4217 36.8411 53.4944 36.6367 53.6381 36.5345 53.7091 37.274 53.7871 38.0168 53.7334 38.758 53.7628 38.8255 53.4771 38.8827 53.1914 38.9312 52.9022 38.6299 53.3005 38.287 53.6555 37.738 53.5048 37.7225 52.8087 37.6896 52.1091 37.7363 51.413 37.7294 51.1636 38.003 51.0649 38.1433 50.9073 37.6099 50.9229 37.0766 50.9177 36.5449 50.9402M38.9814 50.935C39.1182 51.0355 39.255 51.1376 39.3918 51.2398 39.4004 51.9429 39.4368 52.6476 39.3866 53.3507 39.2862 53.4477 39.0835 53.6451 38.9831 53.7438 39.7243 53.7524 40.4654 53.7524 41.2083 53.749 41.2602 53.4684 41.3087 53.1862 41.3503 52.9057 41.0524 53.2987 40.7148 53.6468 40.1728 53.5221 40.1503 52.8225 40.1191 52.1212 40.1641 51.4234 40.152 51.1705 40.4256 51.0666 40.5676 50.9073 40.0377 50.9229 39.5095 50.9212 38.9814 50.935M40.8395 50.9125C41.0144 51.0822 41.2412 51.2225 41.3312 51.4649 41.6499 52.2182 41.9183 52.994 42.2127 53.7594 42.294 53.7715 42.4603 53.7992 42.5417 53.8113 42.8707 53.0269 43.1374 52.2147 43.4976 51.4441 43.5997 51.2121 43.8283 51.0788 44.0067 50.9125 43.5963 50.9229 43.1859 50.9212 42.7754 50.9194 42.8828 50.9974 43.0941 51.1498 43.2014 51.2277 43.0196 51.7593 42.8413 52.2926 42.6612 52.8243 42.4326 52.2978 42.2334 51.7593 42.0256 51.2242 42.1226 51.148 42.3166 50.9939 42.4135 50.9177 41.8871 50.9212 41.3624 50.9264 40.8395 50.9125Z" fill="#FFFFFF" transform="matrix(1.00052 0 0 1 237 118.182)"/><path d="M49.9082 38.3043C50.9039 37.4645 52.2736 37.39 53.5169 37.3623 56.8227 37.3519 60.1284 37.3605 63.4341 37.3588 63.4411 43.9305 63.422 50.5021 63.4428 57.072 60.2479 57.1067 57.053 57.0772 53.8563 57.0876 52.6286 57.1049 51.342 56.9976 50.1766 57.4668 49.4441 57.756 48.9021 58.4504 48.7982 59.2314 48.7064 59.4427 48.7964 59.7925 48.5315 59.8912 48.4882 59.6695 48.4674 59.4479 48.4691 59.2227 48.4795 53.4511 48.4674 47.6795 48.4743 41.9079 48.4674 40.5918 48.8449 39.1615 49.9082 38.3043M50.3341 40.4897C50.4813 40.6039 50.6181 40.7286 50.7445 40.8654 50.7688 41.494 50.7168 42.1226 50.651 42.7477 50.6632 43.0092 50.4138 43.1408 50.2631 43.3157 50.6337 43.314 51.0026 43.314 51.3731 43.3175L51.3818 43.1928C51.29 43.1426 51.1065 43.0387 51.0147 42.9884 50.9575 42.4395 50.9974 41.8871 51.0233 41.3399 51.3593 41.9529 51.5359 42.6335 51.8372 43.262 51.8892 43.262 51.9948 43.2586 52.0468 43.2569 52.3671 42.5694 52.5628 41.8282 52.9143 41.1546 52.9282 41.7728 52.9282 42.391 52.916 43.0092 52.8139 43.082 52.6113 43.2291 52.5091 43.3019 53.013 43.3157 53.5169 43.3157 54.0208 43.314 53.9291 43.217 53.7438 43.0231 53.652 42.9261 53.5879 42.2369 53.5741 41.5425 53.5862 40.8516 53.6884 40.7615 53.8927 40.5797 53.9949 40.4897 53.6139 40.4879 53.2347 40.4879 52.8537 40.4862 52.639 41.0421 52.4277 41.5997 52.2165 42.1572 51.9013 41.6308 51.6762 41.0594 51.4424 40.4949 51.0718 40.4862 50.703 40.4879 50.3341 40.4897M54.2148 40.4879C54.3014 40.5884 54.4763 40.7892 54.5629 40.8914 54.6061 41.5667 54.6079 42.2508 54.5611 42.9278 54.4676 43.0231 54.2789 43.2153 54.1854 43.3123 54.7014 43.314 55.2174 43.3123 55.7352 43.3157 55.6399 43.2205 55.4495 43.0317 55.3542 42.9365 55.3023 42.2525 55.3057 41.5616 55.3508 40.8775 55.446 40.7788 55.6348 40.5849 55.7283 40.4862 55.2243 40.4862 54.7187 40.4862 54.2148 40.4879M55.8027 40.4983C55.9707 40.6143 56.1265 40.7459 56.2685 40.8931 56.3447 41.4577 56.3153 42.0308 56.298 42.5988 56.343 42.9174 56.1594 43.1426 55.8772 43.269 56.2997 43.3417 56.7326 43.3382 57.15 43.2378 57.0201 43.191 56.7603 43.0975 56.6287 43.0491 56.5647 42.4828 56.5577 41.9114 56.5837 41.3416 56.9837 41.778 57.337 42.256 57.6989 42.727 57.9309 43.0127 58.1335 43.4023 58.5595 43.3919 58.5786 42.5988 58.5301 41.804 58.5924 41.0126 58.5699 40.7425 58.8712 40.6542 59.0201 40.4879 58.6011 40.4862 58.1838 40.4879 57.7682 40.4966 57.9292 40.6074 58.0868 40.7234 58.2426 40.8446 58.3223 41.3191 58.2929 41.8057 58.3067 42.2854 57.7976 41.6949 57.3266 41.0715 56.8227 40.4758 56.4815 40.4845 56.1421 40.4897 55.8027 40.4983M58.8141 43.314C59.2072 43.3157 59.6003 43.3105 59.9933 43.2984 59.8894 43.2326 59.6816 43.0975 59.576 43.03 59.6366 42.8413 59.6972 42.6525 59.7561 42.4637 59.9916 42.4586 60.2271 42.4551 60.4626 42.4499 60.5302 42.649 60.5942 42.8482 60.6618 43.0491 60.5717 43.1114 60.3899 43.2361 60.2981 43.2984 60.8055 43.3192 61.3146 43.3157 61.8237 43.3105 61.6505 43.1374 61.4202 43.004 61.3388 42.7616 61.0167 41.9979 60.802 41.1944 60.4678 40.436L60.2617 40.4533C59.6522 41.3347 59.6764 42.6023 58.8141 43.314M52.2805 45.6102C52.2719 45.9323 52.2649 46.2543 52.2632 46.5764 52.4572 46.2284 52.6892 45.9011 53.1256 45.8855 53.1464 46.663 53.1464 47.4423 53.1204 48.2198 53.0061 48.2908 52.7775 48.4345 52.6632 48.5072 53.2364 48.5453 53.8113 48.5453 54.3845 48.5038 54.2633 48.4328 54.0191 48.2943 53.8962 48.225 53.8702 47.444 53.8685 46.663 53.8944 45.8838 54.3222 45.8924 54.5473 46.2405 54.7637 46.5574 54.7655 46.2526 54.7533 45.9478 54.7291 45.6431 53.9169 45.7106 53.0857 45.7799 52.2805 45.6102M54.994 45.7158C55.1326 45.8249 55.2728 45.934 55.4148 46.0414 55.401 46.7479 55.4581 47.4561 55.3871 48.1609 55.2971 48.2527 55.117 48.4345 55.0269 48.5263 55.5412 48.5349 56.0555 48.5384 56.5716 48.5124 56.4711 48.438 56.2703 48.2856 56.1698 48.2094 56.1594 47.5444 56.1317 46.8777 56.1698 46.2145 56.1404 45.9582 56.4278 45.8665 56.5612 45.702 56.0382 45.7037 55.5153 45.7002 54.994 45.7158M57.5759 45.8405C56.814 46.2751 56.6201 47.4198 57.1777 48.0916 57.6833 48.7168 58.7171 48.7601 59.3059 48.2284 59.9223 47.6587 59.9379 46.5453 59.3024 45.9842 58.8383 45.5703 58.1076 45.5478 57.5759 45.8405M51.574 50.916C51.7974 51.0961 52.097 51.2675 52.0017 51.6086 51.9221 52.329 52.1074 53.1775 51.5809 53.7611 51.9567 53.7524 52.3429 53.7871 52.7082 53.6745 51.8944 53.4927 52.3377 52.4641 52.2892 51.8857 52.6805 52.4831 52.8104 53.2052 53.1637 53.8234 53.6364 53.1273 53.8061 52.284 54.1559 51.5273 54.0589 52.258 54.4953 53.2243 53.8113 53.7524 54.3048 53.7524 54.7966 53.749 55.2884 53.742 55.1984 53.6641 55.0165 53.5117 54.9265 53.4355 54.8053 52.7117 54.8555 51.9688 54.8261 51.2363 54.975 51.1307 55.1239 51.0251 55.2746 50.9212 54.8797 50.9212 54.4867 50.9229 54.0936 50.9316 53.884 51.4995 53.6641 52.0641 53.4546 52.6303 53.1671 52.0693 52.9334 51.484 52.665 50.9142 52.3013 50.9212 51.9377 50.9212 51.574 50.916M55.4252 50.9194C55.5239 51.0026 55.7213 51.1653 55.8218 51.2485 55.8304 51.9498 55.8685 52.6528 55.8131 53.3542 55.7023 53.4494 55.4824 53.6399 55.3715 53.7351 56.1473 53.7576 56.9248 53.7559 57.7024 53.7438 57.7491 53.4563 57.7924 53.1689 57.8288 52.8831 57.6452 53.0736 57.4859 53.2849 57.3023 53.4736 57.0686 53.5048 56.8331 53.5204 56.5993 53.5187 56.5802 53.1325 56.5733 52.7446 56.5733 52.3567 56.9508 52.3481 57.2088 52.5836 57.4028 52.8762 57.4132 52.4953 57.4184 52.1143 57.4114 51.7351 57.1967 51.9948 56.9318 52.1784 56.582 52.1905 56.5733 51.8442 56.5716 51.4995 56.5681 51.1567 57.0495 51.0441 57.3612 51.3489 57.6019 51.7212 57.5984 51.458 57.595 51.1965 57.5933 50.9368 56.8694 50.9142 56.1473 50.9229 55.4252 50.9194M57.8132 53.7472C58.182 53.7507 58.5509 53.7507 58.9197 53.7455 58.802 53.6399 58.6842 53.5377 58.5647 53.4373 58.6236 53.2537 58.6807 53.0736 58.7413 52.8918 58.9803 52.8935 59.2227 52.8953 59.4635 52.897 59.6054 53.1983 59.6245 53.5048 59.3907 53.7663 59.8635 53.7524 60.3379 53.7472 60.8124 53.7282 60.6133 53.5585 60.3691 53.4113 60.2946 53.1429 59.9795 52.3619 59.7388 51.5515 59.4063 50.7774 58.5647 51.5671 58.724 52.9905 57.8132 53.7472Z" fill="#FFFFFF" transform="matrix(1.00052 0 0 1 237 118.182)"/><path d="M25.3065 38.6576C25.7567 38.0047 26.8632 37.9839 27.2806 38.6801 27.5594 39.2619 28.2711 39.2481 28.7992 39.4472 28.7975 39.2913 28.7958 38.9814 28.794 38.8255 29.2477 38.8238 29.7032 38.8238 30.1586 38.8238 30.1638 45.7729 30.1568 52.7238 30.162 59.6747 35.1873 59.6695 40.2126 59.6747 45.2379 59.673 45.4682 60.26 45.766 60.9094 46.4137 61.1276 47.2951 61.4272 48.2925 61.4272 49.1757 61.1345 49.8337 60.925 50.1454 60.2687 50.3757 59.673 55.4166 59.6643 60.4592 59.6886 65.5 59.6609 65.4827 52.7152 65.4966 45.7695 65.4931 38.8238 65.9468 38.8238 66.4005 38.8238 66.8542 38.8221 66.8594 46.2266 66.8559 53.6312 66.8559 61.0358 61.6419 61.0393 56.4278 61.0289 51.2138 61.0393 50.3705 62.5302 48.4813 62.9008 46.9106 62.6445 45.8769 62.5285 44.9331 61.9276 44.3946 61.0375 39.1978 61.0358 34.0029 61.0271 28.8062 61.0427 28.794 60.5475 28.7958 60.0539 28.7958 59.5587 28.3784 59.7284 27.9628 59.905 27.5576 60.1007 27.3637 60.7068 26.8009 61.2367 26.1238 61.1103 25.2666 61.0202 24.7575 59.9345 25.2511 59.2227 25.6112 58.6097 26.4251 58.5197 27.0191 58.8262 27.6148 58.5786 28.2105 58.3258 28.7992 58.0608 28.7958 57.5188 28.7958 56.9785 28.7958 56.44 28.3923 56.5612 27.9905 56.6841 27.5923 56.8175 27.3446 57.3681 26.7853 57.8357 26.1463 57.6885 25.2528 57.569 24.8026 56.3742 25.3982 55.6954 25.8156 55.1308 26.6364 55.1222 27.1853 55.4979 27.7239 55.3438 28.2572 55.1793 28.794 55.0183 28.7975 54.459 28.7958 53.8996 28.7975 53.3403 28.3871 53.4078 27.9767 53.4754 27.568 53.5481 27.2632 54.0122 26.7455 54.4174 26.155 54.2719 25.2597 54.1421 24.8285 52.9403 25.4311 52.2684 25.8952 51.6623 26.7992 51.7212 27.3342 52.1957 27.8226 52.1195 28.3092 52.0346 28.7958 51.9498 28.7958 51.3801 28.7958 50.8086 28.7975 50.2389 28.368 50.2528 27.9403 50.2683 27.5126 50.2891 27.0572 50.9177 26.0649 51.1134 25.516 50.4969 24.8389 49.851 25.2372 48.5765 26.1602 48.4293 26.6779 48.2821 27.1057 48.6423 27.5074 48.9055 27.9369 48.9246 28.3663 48.8865 28.7958 48.8726 28.7958 48.2544 28.7958 47.638 28.7992 47.0215 28.3421 46.9955 27.8849 46.9747 27.4278 46.9626 27.0849 47.2864 26.6347 47.5739 26.1394 47.4423 25.3359 47.3072 24.877 46.2907 25.3203 45.6032 25.677 44.9348 26.6814 44.7738 27.2113 45.3296 27.613 45.7764 28.2659 45.5755 28.7958 45.65 28.7958 45.0803 28.7958 44.5123 28.7975 43.946 28.2953 43.8525 27.7966 43.7573 27.2927 43.6811 26.9186 43.9495 26.4476 44.1712 25.9853 43.9928 25.232 43.7781 24.8753 42.7841 25.3255 42.1434 25.7203 41.4784 26.7801 41.3641 27.265 41.9875 27.5957 42.514 28.2676 42.4257 28.7975 42.5521 28.7958 41.9927 28.7958 41.4334 28.794 40.8724 28.2538 40.7217 27.7273 40.5226 27.1801 40.4013 26.7593 40.4931 26.3351 40.7685 25.8952 40.5728 25.1229 40.3355 24.7974 39.2879 25.3065 38.6576Z" fill="#FFFFFF" transform="matrix(1.00052 0 0 1 237 118.182)"/><path d="M34.5362 40.6975C35.6739 40.5901 35.8575 42.1953 35.2687 42.8759 35.1129 43.0768 34.6176 43.2309 34.5605 42.8776 34.4843 42.1538 34.5379 41.423 34.5362 40.6975Z" fill="#FFFFFF" transform="matrix(1.00052 0 0 1 237 118.182)"/><path d="M37.9649 40.713C38.403 40.4637 38.7528 41.0092 38.8065 41.3849 38.8861 41.9339 38.9779 42.6369 38.5606 43.0733 38.1052 43.3659 37.7034 42.8153 37.6411 42.4101 37.5424 41.8525 37.4731 41.1096 37.9649 40.713Z" fill="#FFFFFF" transform="matrix(1.00052 0 0 1 237 118.182)"/><path d="M59.8132 42.185C59.9137 41.9165 60.0176 41.6516 60.1249 41.3867 60.2115 41.662 60.2998 41.9391 60.3882 42.2161 60.1959 42.2057 60.0037 42.1953 59.8132 42.185Z" fill="#FFFFFF" transform="matrix(1.00052 0 0 1 237 118.182)"/><path d="M82.8859 42.9521C85.6392 42.7374 88.3891 42.4828 91.1459 42.2871 91.2359 43.8075 91.3883 45.3244 91.5026 46.8431 91.1251 46.8743 90.7493 46.9037 90.3736 46.9349 90.2853 45.8491 90.1935 44.7634 90.1121 43.6759 89.3571 43.7296 88.6038 43.8075 87.8471 43.837 87.8852 44.8708 88.0047 45.8994 88.0774 46.9297 87.7068 46.9574 87.338 46.9886 86.9709 47.0145 86.8947 45.9911 86.8064 44.9695 86.7232 43.9478 85.4782 44.0603 84.2331 44.1556 82.9863 44.2474 82.9534 43.8144 82.9205 43.3833 82.8859 42.9521Z" fill="#FFFFFF" transform="matrix(1.00052 0 0 1 237 118.182)"/><path d="M4.3759 42.436C7.10153 43.5253 9.81678 44.6422 12.5389 45.7418 12.5234 46.1972 12.5043 46.6526 12.4835 47.1098 9.6921 47.9514 6.8972 48.7826 4.10057 49.6086 4.1023 49.1549 4.10403 48.7012 4.09884 48.2492 6.3396 47.6033 8.59076 46.9955 10.8315 46.3513 8.71025 45.4076 6.50065 44.6664 4.34473 43.7989 4.35512 43.3452 4.36551 42.8897 4.3759 42.436Z" fill="#FFFFFF" transform="matrix(1.00052 0 0 1 237 118.182)"/><path d="M58.0643 45.9201C58.3258 45.7712 58.6271 45.9548 58.7483 46.1972 58.9994 46.6838 58.9942 47.2639 58.9093 47.7938 58.8747 48.0847 58.6773 48.3929 58.3483 48.3826 57.8634 48.2683 57.7197 47.7159 57.6764 47.2864 57.6469 46.8171 57.6469 46.2284 58.0643 45.9201Z" fill="#FFFFFF" transform="matrix(1.00052 0 0 1 237 118.182)"/><path d="M85.2704 50.4831C87.2878 49.9584 89.8073 50.7047 90.7597 52.6719 91.4801 54.2061 91.0091 56.2374 89.6012 57.2158 87.7345 58.466 84.9846 58.0695 83.4383 56.4763 82.472 55.446 82.2867 53.8373 82.8218 52.5576 83.2495 51.529 84.1967 50.7532 85.2704 50.4831M85.8141 51.7229C84.6833 51.8701 83.6807 52.8364 83.698 54.0122 83.6097 55.1135 84.5465 55.9707 85.5128 56.3014 86.5934 56.698 87.8938 56.7828 88.9034 56.1542 89.9839 55.4997 90.2939 53.8563 89.4714 52.8797 88.6021 51.839 87.1042 51.5376 85.8141 51.7229Z" fill="#FFFFFF" transform="matrix(1.00052 0 0 1 237 118.182)"/><path d="M58.7985 52.6494C58.8937 52.3636 58.9942 52.0814 59.0946 51.7974 59.1847 52.0745 59.2764 52.3515 59.3717 52.6286 59.2279 52.6338 58.9422 52.6442 58.7985 52.6494Z" fill="#FFFFFF" transform="matrix(1.00052 0 0 1 237 118.182)"/><path d="M135.693 52.4225C141.776 51.7887 148.161 53.5568 152.805 57.6002 155.47 59.8877 157.536 62.8679 158.746 66.1667 161.025 72.4024 160.345 79.6771 156.861 85.3414 154.417 89.3519 150.573 92.4585 146.175 94.0897 139.215 96.6803 130.962 95.7625 124.894 91.416 120.752 88.4895 117.76 83.9959 116.66 79.0451 115.214 72.6189 116.653 65.5104 120.823 60.357 124.421 55.8218 129.949 52.9697 135.693 52.4225M136.204 54.5092C133.904 54.7862 131.677 55.6763 129.852 57.1067 127.561 58.8833 125.925 61.3873 124.863 64.0593 123.408 67.7373 122.93 71.7478 123.137 75.6822 123.31 78.9896 123.973 82.3144 125.433 85.3067 126.662 87.8401 128.534 90.1121 130.974 91.558 133.637 93.1667 136.863 93.6897 139.93 93.3243 142.32 93.0455 144.64 92.1087 146.509 90.5848 148.767 88.7683 150.367 86.2453 151.399 83.5612 152.862 79.7412 153.29 75.5817 153.002 71.521 152.762 68.1927 152.007 64.8541 150.426 61.8964 149.101 59.4184 147.12 57.2383 144.609 55.9326 142.051 54.5732 139.061 54.1663 136.204 54.5092Z" fill="#FFFFFF" transform="matrix(1.00052 0 0 1 237 118.182)"/><path d="M269.734 52.4398C275.947 51.7489 282.494 53.5758 287.19 57.7664 289.708 59.9812 291.67 62.8159 292.862 65.9502 295.343 72.5046 294.515 80.2538 290.586 86.0756 287.755 90.3078 283.329 93.4057 278.42 94.7166 271.626 96.5625 263.938 95.2517 258.364 90.8757 254.012 87.5198 251.123 82.3698 250.485 76.9151 249.693 70.6517 251.57 64.0091 255.889 59.344 259.434 55.4235 264.49 52.9801 269.734 52.4398M270.412 54.5074C268.476 54.7429 266.587 55.3975 264.953 56.4659 262.566 57.9985 260.777 60.3258 259.579 62.8714 258.033 66.1615 257.361 69.8118 257.297 73.431 257.248 77.1904 257.763 81.0122 259.255 84.4859 260.4 87.1561 262.199 89.6047 264.639 91.2221 266.96 92.784 269.786 93.494 272.568 93.4317 275.244 93.4005 277.935 92.6091 280.115 91.0333 282.581 89.2757 284.342 86.6782 285.467 83.8954 287.019 80.0408 287.487 75.812 287.215 71.6838 286.988 68.2966 286.231 64.8939 284.617 61.886 283.31 59.4427 281.367 57.2937 278.905 55.9828 276.328 54.5888 273.301 54.1611 270.412 54.5074Z" fill="#FFFFFF" transform="matrix(1.00052 0 0 1 237 118.182)"/><path d="M4.5889 53.6624C7.31972 53.2762 10.0454 52.852 12.7745 52.4623 12.8368 52.8953 12.8991 53.3282 12.9615 53.7611 10.2358 54.1715 7.51021 54.5819 4.78111 54.9715 4.71704 54.5351 4.65297 54.097 4.5889 53.6624Z" fill="#FFFFFF" transform="matrix(1.00052 0 0 1 237 118.182)"/><path d="M162.047 52.9888C168.172 52.9905 174.297 52.987 180.423 52.9905 180.42 53.4979 180.42 54.0053 180.418 54.5126 179.1 54.7845 177.783 55.0598 176.463 55.3196 176.131 55.4044 175.736 55.4564 175.528 55.7612 175.447 56.156 175.731 56.4867 175.926 56.7967 179.099 61.3215 182.252 65.8585 185.428 70.3816 185.547 70.7002 185.836 70.527 185.944 70.3054 189.201 65.7528 192.467 61.2072 195.717 56.6512 195.993 56.3447 196.14 55.7819 195.624 55.6348 194.235 55.1534 192.777 54.8849 191.355 54.5109 191.352 54.0035 191.352 53.4962 191.352 52.9888 196.275 52.987 201.198 52.9888 206.123 52.9888 206.121 53.4979 206.121 54.007 206.118 54.5178 204.466 54.975 202.758 55.2469 201.148 55.8426 199.742 56.3638 198.862 57.6244 197.982 58.7587 194.337 63.3493 190.69 67.9382 187.05 72.5323 191.39 78.2398 195.719 83.9543 200.055 89.6653 200.755 90.6818 201.608 91.6602 202.802 92.0931 204.223 92.6126 205.718 92.8949 207.169 93.3191 207.169 93.8213 207.169 94.3252 207.177 94.8291 201.051 94.8499 194.923 94.8309 188.798 94.8378 188.796 94.3339 188.796 93.83 188.792 93.3278 190.335 92.9659 191.92 92.765 193.44 92.3165 193.982 92.1399 193.698 91.5268 193.452 91.2152 190.443 86.9605 187.419 82.7162 184.403 78.4667 183.89 77.7671 183.426 77.0311 182.865 76.3696 179.622 80.7075 176.503 85.144 173.308 89.5199 172.833 90.2246 172.252 90.8619 171.864 91.6186 171.699 92.0689 172.276 92.2368 172.593 92.3459 173.879 92.6957 175.183 92.9745 176.472 93.3208 176.473 93.8282 176.473 94.3373 176.453 94.8447 171.536 94.8309 166.622 94.8361 161.708 94.8412 161.701 94.3339 161.701 93.8265 161.704 93.3191 163.095 92.978 164.487 92.6438 165.869 92.268 166.974 91.9667 168.002 91.3589 168.731 90.4653 172.986 85.1595 177.204 79.8208 181.467 74.522 177.564 69.2872 173.611 64.0904 169.687 58.8695 168.816 57.7422 168.044 56.4123 166.664 55.8426 165.178 55.2417 163.588 54.949 162.05 54.5109 162.045 54.0035 162.045 53.4962 162.047 52.9888Z" fill="#FFFFFF" transform="matrix(1.00052 0 0 1 237 118.182)"/><path d="M212.864 52.9922C223.408 52.9836 233.952 52.9905 244.498 52.9888 244.496 56.4798 244.496 59.9691 244.498 63.4584 243.913 63.4601 243.331 63.4601 242.749 63.4584 242.086 61.3371 241.418 59.2176 240.753 57.098 240.545 56.4521 240.273 55.7698 239.701 55.3611 239.189 54.9958 238.533 54.9681 237.927 54.9715 233.641 54.9854 229.353 54.9577 225.067 54.9854 225.085 60.9856 225.069 66.984 225.074 72.9825 228.091 72.9842 231.107 72.9825 234.126 72.9842 234.998 72.9669 235.961 73.0916 236.739 72.5964 237.414 72.1669 237.724 71.3842 237.939 70.6482 238.264 69.5296 238.586 68.4092 238.917 67.2906 239.492 67.294 240.069 67.294 240.647 67.2819 240.682 71.9331 240.65 76.5844 240.663 81.2356 240.081 81.2373 239.501 81.2373 238.922 81.2425 238.559 79.852 238.223 78.4546 237.868 77.0623 237.714 76.4545 237.449 75.8346 236.927 75.4536 236.378 75.0293 235.658 74.9618 234.99 74.9583 231.684 74.9566 228.38 74.9583 225.074 74.9583 225.078 80.0962 225.067 85.234 225.079 90.3718 225.02 91.1649 225.512 91.9615 226.311 92.1416 228.06 92.5676 229.829 92.9122 231.583 93.3191 231.583 93.8178 231.585 94.3183 231.603 94.8205 225.358 94.8603 219.112 94.8257 212.868 94.8378 212.866 94.3304 212.866 93.8248 212.866 93.3208 214.182 93.0091 215.495 92.6871 216.809 92.3702 217.417 92.2039 218.09 92.0585 218.535 91.5736 218.903 91.1615 218.911 90.5727 218.918 90.0498 218.911 79.2009 218.923 68.3503 218.913 57.4997 218.982 56.7049 218.482 55.9482 217.711 55.7335 216.118 55.2451 214.478 54.9213 212.866 54.504 212.866 54.0001 212.866 53.4962 212.864 52.9922Z" fill="#FFFFFF" transform="matrix(1.00052 0 0 1 237 118.182)"/><path d="M299.033 52.9888C304.469 52.9888 309.906 52.9888 315.342 52.9888 318.648 52.9905 322.028 52.9386 325.228 53.8927 328.394 54.8105 331.059 57.2452 332.298 60.2929 333.454 63.0272 333.372 66.2793 331.944 68.8975 330.491 71.6353 327.815 73.5366 324.946 74.5687 324.227 74.8544 323.453 74.9722 322.752 75.2977 324.239 76.0926 325.251 77.4744 326.291 78.7559 329.346 82.6452 332.29 86.6193 335.28 90.5589 335.966 91.468 336.969 92.1347 338.089 92.3667 339.532 92.6732 340.969 93.0022 342.41 93.3174 342.408 93.8196 342.41 94.3235 342.42 94.8274 338.988 94.843 335.556 94.8464 332.125 94.8257 331.001 94.8222 330.222 93.9027 329.616 93.0732 326.366 88.5328 323.121 83.9907 319.876 79.4468 318.899 78.1359 317.818 76.6606 316.123 76.2934 314.52 75.9748 312.873 76.1861 311.252 76.1186 311.24 80.8806 311.242 85.6427 311.25 90.4047 311.198 91.2065 311.721 91.9875 312.525 92.1537 314.262 92.571 316.016 92.9191 317.758 93.3191 317.756 93.8265 317.756 94.3339 317.753 94.8412 311.517 94.8361 305.281 94.8326 299.045 94.843 299.03 94.3339 299.03 93.8265 299.035 93.3191 300.651 92.9035 302.297 92.5953 303.891 92.0931 304.632 91.8818 305.125 91.1615 305.075 90.3943 305.087 79.4277 305.082 68.4577 305.079 57.4911 305.136 56.7066 304.658 55.9482 303.887 55.7352 302.292 55.2486 300.651 54.9213 299.035 54.5074 299.032 54.0001 299.032 53.4944 299.033 52.9888M311.245 54.975C311.254 61.37 311.226 67.765 311.259 74.16 313.079 74.1306 314.899 74.167 316.719 74.141 318.525 74.1116 320.376 73.8293 321.986 72.9687 323.235 72.3089 324.283 71.2734 324.934 70.0162 325.846 68.3036 326.122 66.3295 326.13 64.4091 326.141 62.3276 325.573 60.2029 324.309 58.5284 322.852 56.5733 320.527 55.3577 318.118 55.1101 315.834 54.8711 313.534 55.0131 311.245 54.975Z" fill="#FFFFFF" transform="matrix(1.00052 0 0 1 237 118.182)"/><path d="M345.781 52.9888C351.099 52.9888 356.419 52.9888 361.738 52.9888 365.68 52.994 369.671 52.8849 373.547 53.7403 376.735 54.3949 379.779 55.8079 382.255 57.9327 386.475 61.493 388.828 66.92 389.206 72.3678 389.561 77.6493 388.467 83.2409 385.17 87.4938 383.242 89.9857 380.601 91.8853 377.689 93.0611 374.598 94.2646 371.259 94.6369 367.967 94.7893 360.577 94.9001 353.182 94.7997 345.792 94.8447 345.776 94.3339 345.774 93.8265 345.783 93.3174 347.352 92.9278 348.938 92.5884 350.495 92.1451 351.29 91.9546 351.889 91.2273 351.823 90.3943 351.839 79.5386 351.823 68.6828 351.832 57.8253 351.828 57.2746 351.823 56.646 351.419 56.2218 350.995 55.7889 350.384 55.6399 349.821 55.4893 348.472 55.1689 347.13 54.8278 345.781 54.5109 345.778 54.0035 345.778 53.4962 345.781 52.9888M357.995 54.9733C357.995 66.9546 357.996 78.936 357.995 90.9173 358.012 91.4281 357.979 92.0065 358.31 92.436 358.686 92.8654 359.311 92.8412 359.837 92.8637 361.915 92.855 363.993 92.8793 366.073 92.8464 368.726 92.7702 371.437 92.5156 373.91 91.4784 376.464 90.4203 378.482 88.325 379.796 85.9267 381.362 83.0538 382.016 79.7758 382.226 76.5359 382.418 73.2024 382.224 69.8188 381.377 66.5806 380.643 63.8047 379.355 61.1189 377.341 59.0444 375.619 57.2487 373.358 55.9828 370.909 55.5222 366.656 54.6841 362.298 55.065 357.995 54.9733Z" fill="#FFFFFF" transform="matrix(1.00052 0 0 1 237 118.182)"/><path d="M5.7595 59.879C8.36911 58.9855 10.9666 58.0573 13.571 57.15 13.7199 57.5413 13.8637 57.9361 14.0057 58.3327 12.4922 60.1596 11.0116 62.0142 9.4843 63.829 11.3805 63.0566 13.2888 62.2982 15.2022 61.5622 15.3304 61.9467 15.4672 62.3259 15.6057 62.7068 13.0463 63.7164 10.461 64.6602 7.90676 65.6853 7.73359 65.2905 7.58294 64.887 7.4496 64.4783 8.95268 62.6739 10.435 60.8505 11.9311 59.0392 10.0073 59.6886 8.09897 60.3847 6.17683 61.0393 6.03656 60.6531 5.8963 60.2652 5.7595 59.879Z" fill="#FFFFFF" transform="matrix(1.00052 0 0 1 237 118.182)"/><path d="M81.2131 59.8236C83.724 60.9406 86.2262 62.08 88.7319 63.2108 88.209 64.319 87.854 65.5295 87.099 66.5113 86.1258 67.7096 83.9785 67.2819 83.3725 65.9191 83.2339 65.6108 83.227 65.2697 83.1958 64.9407 81.788 65.3684 80.2867 65.1 78.8372 65.1797 79.0191 64.7623 79.2026 64.3467 79.3723 63.9259 80.4529 63.8428 81.5421 63.9727 82.6192 63.8428 83.3396 63.7614 83.5647 62.9753 83.8106 62.4125 82.7612 61.9588 81.7291 61.4722 80.6849 61.0116 80.8616 60.6167 81.0365 60.2202 81.2131 59.8236M84.2487 64.7623C84.3041 65.6818 85.5526 66.2654 86.2713 65.6766 86.7388 65.2091 86.9241 64.5493 87.2185 63.9727 86.434 63.5727 85.6184 63.2419 84.8201 62.8748 84.576 63.4809 84.2123 64.0852 84.2487 64.7623Z" fill="#FFFFFF" transform="matrix(1.00052 0 0 1 237 118.182)"/><path d="M46.2163 66.6672C46.6907 66.0368 47.0907 65.3476 47.6085 64.7519 48.0501 64.6151 48.2059 65.0896 48.4276 65.3597 49.1237 66.397 49.9047 67.3771 50.5662 68.4352 50.367 68.8404 49.6969 68.6568 49.3211 68.8681 49.8839 69.6924 50.3878 70.5617 51.0389 71.3219 51.7939 70.6759 52.5697 70.0543 53.3039 69.3859 52.9732 69.1659 52.6095 69.0014 52.2511 68.8352 52.9507 68.0854 53.9014 67.6282 54.7014 66.9962 55.0875 66.778 55.4131 66.3243 55.8928 66.3624 55.3525 68.4594 54.5455 70.4889 53.9325 72.5686 51.9515 71.9383 49.8545 71.8275 47.7921 71.805 45.721 71.8275 43.6188 71.9349 41.6326 72.5686 41.0195 70.6275 40.3667 68.6967 39.7381 66.7607 39.6082 66.5736 39.7104 66.1684 39.9857 66.3901 41.1615 67.1624 42.346 67.9295 43.4733 68.7729 43.1149 68.9807 42.7495 69.1746 42.3945 69.3876 43.101 70.0422 43.8196 70.6829 44.5348 71.327 45.1617 70.5495 45.6898 69.6993 46.2353 68.8681 45.818 68.733 45.3833 68.6586 44.9521 68.591 45.2638 67.8828 45.7937 67.3079 46.2163 66.6672Z" fill="#FFFFFF" transform="matrix(1.00052 0 0 1 237 118.182)"/><path d="M14.6827 67.1503C15.4274 66.6533 16.3573 66.2602 17.2508 66.5944 18.6638 67.1139 19.6336 68.6516 19.5297 70.1495 19.469 71.0309 18.7556 71.6595 18.0924 72.1496 16.6464 73.192 15.197 74.2276 13.7373 75.2493 13.4914 74.8839 13.242 74.522 12.9909 74.1618 14.3503 73.2042 15.6992 72.2327 17.0568 71.2716 17.5313 70.9097 18.1305 70.5651 18.2759 69.94 18.4318 68.8889 17.5538 67.7061 16.4421 67.7581 16.0178 67.8049 15.6594 68.0594 15.3079 68.2793 13.8567 69.2664 12.4039 70.2517 10.951 71.2335 10.7034 70.8785 10.4558 70.5218 10.2099 70.1668 11.7026 69.1659 13.1797 68.1373 14.6827 67.1503Z" fill="#FFFFFF" transform="matrix(1.00052 0 0 1 237 118.182)"/><path d="M75.6337 69.772C76.2207 68.9408 76.8736 68.1598 77.5091 67.3667 79.6581 69.0897 81.8157 70.8041 83.9664 72.5271 83.0729 73.5903 82.3075 74.7904 81.1975 75.6458 80.1273 76.4891 78.5792 76.4805 77.3948 75.8848 76.1203 75.2406 75.0501 74.0319 74.8579 72.5825 74.7021 71.5816 75.0674 70.5824 75.6337 69.772M76.2259 71.0119C75.812 71.8725 76.0735 72.9184 76.6796 73.6198 77.4363 74.5185 78.6 75.2718 79.8243 74.9982 80.9516 74.7471 81.5681 73.6769 82.2833 72.8734 80.7196 71.6128 79.1611 70.3435 77.5714 69.1192 77.0381 69.6802 76.5653 70.314 76.2259 71.0119Z" fill="#FFFFFF" transform="matrix(1.00052 0 0 1 237 118.182)"/><path d="M45.2188 73.2873C47.4094 73.1037 49.6328 73.1124 51.8026 73.4916 52.3481 73.6146 52.9455 73.6994 53.3923 74.0613 53.6572 74.2657 53.3576 74.5497 53.1498 74.6345 52.2355 75.0501 51.2173 75.1419 50.2302 75.2493 48.0639 75.4242 45.8665 75.4086 43.7209 75.0311 43.1685 74.9012 42.5521 74.8146 42.1174 74.4181 41.9477 74.1323 42.2854 73.947 42.5001 73.8501 43.3607 73.4934 44.2993 73.3895 45.2188 73.2873Z" fill="#FFFFFF" transform="matrix(1.00052 0 0 1 237 118.182)"/><path d="M42.1642 87.7432C42.8499 87.3207 43.83 87.8575 43.8543 88.6575 43.946 89.4956 42.9503 90.164 42.2127 89.7502 41.4092 89.3969 41.3797 88.1345 42.1642 87.7432Z" fill="#FFFFFF" transform="matrix(1.00052 0 0 1 237 118.182)"/><path d="M53.7438 89.6151C54.5005 89.1857 55.5205 89.8922 55.3906 90.7493 55.3352 91.5875 54.2425 92.0706 53.5879 91.5407 52.9091 91.0887 53.0044 89.951 53.7438 89.6151Z" fill="#FFFFFF" transform="matrix(1.00052 0 0 1 237 118.182)"/></g></svg>